# xmcd
#
# Track frame offsets: 
#        150
#        14357
#        32321
#        44705
#        57067
#        72172
#        92386
#        106116
#        116621
#        127765
#        142745
#        154249
#        168338
#        180210
#        192069
#        204193
#        216459
#        231203
#        243140
#        259997
#        272109
#        285074
#
# Disc length: 4027 seconds
#
# Revision: 0
# Processed by: cddbd v1.5.1PL0 Copyright (c) Steve Scherf et al.
# Submitted via: ExactAudioCopy v0.95a5
#
DISCID=1a0fb916
DTITLE=Various Artist - 美国乡村音乐
DYEAR=2001
DGENRE=Country
TTITLE0=柠檬树
TTITLE1=小孩
TTITLE2=伴你一生
TTITLE3=常青树
TTITLE4=4时55分
TTITLE5=奇异恩典
TTITLE6=太多眼泪
TTITLE7=七个寂寞日
TTITLE8=奉献给你
TTITLE9=多娜多娜
TTITLE10=随风的飘
TTITLE11=绿袖子
TTITLE12=红玫瑰
TTITLE13=孩子诞生时
TTITLE14=全美国最快类的女孩
TTITLE15=世界末日
TTITLE16=老鹰之歌
TTITLE17=沉醉于梦中
TTITLE18=美好时光
TTITLE19=美国乡村1
TTITLE20=美国乡村2
TTITLE21=美国乡村3
EXTD=
EXTT0=
EXTT1=
EXTT2=
EXTT3=
EXTT4=
EXTT5=
EXTT6=
EXTT7=
EXTT8=
EXTT9=
EXTT10=
EXTT11=
EXTT12=
EXTT13=
EXTT14=
EXTT15=
EXTT16=
EXTT17=
EXTT18=
EXTT19=
EXTT20=
EXTT21=
PLAYORDER=
